<?xml version="1.0" standalone="no"?>
<!DOCTYPE svg PUBLIC "-//W3C//DTD SVG 20010904//EN"
 "http://www.w3.org/TR/2001/REC-SVG-20010904/DTD/svg10.dtd">
<svg version="1.0" xmlns="http://www.w3.org/2000/svg"
 width="1146.000000pt" height="1146.000000pt" viewBox="0 0 1146.000000 1146.000000"
 preserveAspectRatio="xMidYMid meet">
<metadata>
Created by potrace 1.11, written by Peter Selinger 2001-2013
</metadata>
<g transform="translate(0.000000,1146.000000) scale(0.100000,-0.100000)"
fill="#000000" stroke="none">
<path d="M9522 11448 c-9 -12 -411 -684 -460 -768 -11 -19 -59 -100 -107 -180
-48 -80 -95 -158 -105 -175 -35 -61 -363 -611 -385 -645 -12 -19 -115 -190
-228 -380 -112 -190 -307 -516 -432 -725 -125 -209 -235 -393 -245 -410 -9
-16 -114 -192 -232 -390 -118 -198 -254 -425 -301 -505 -47 -80 -91 -150 -96
-157 -6 -7 -11 -14 -11 -17 0 -2 -95 -163 -211 -358 -117 -194 -219 -365 -228
-380 -9 -15 -58 -98 -110 -185 l-93 -158 24 -45 c63 -115 95 -173 153 -275 34
-60 96 -171 138 -245 41 -74 89 -160 106 -190 18 -30 39 -68 47 -85 8 -16 23
-43 33 -60 10 -16 31 -55 48 -85 46 -84 117 -210 145 -260 14 -25 94 -169 178
-320 84 -151 169 -304 190 -340 20 -36 52 -92 70 -125 51 -93 64 -115 290
-520 117 -209 228 -409 247 -445 20 -36 52 -94 73 -130 20 -36 50 -87 65 -115
44 -80 722 -1295 768 -1377 15 -27 39 -69 53 -95 51 -93 138 -248 157 -283 11
-19 31 -55 45 -80 14 -25 88 -157 165 -295 77 -137 150 -268 162 -290 12 -22
46 -83 75 -135 29 -52 56 -96 61 -98 5 -2 9 -8 9 -13 0 -5 13 -31 30 -57 l30
-49 530 0 c291 0 530 2 530 3 0 3 -125 227 -197 354 -11 19 -35 62 -53 95 -18
33 -72 130 -120 215 -48 85 -99 178 -115 205 -15 28 -57 102 -93 165 -36 63
-75 133 -87 155 -99 178 -326 584 -360 645 -23 41 -53 93 -65 115 -12 22 -64
114 -115 205 -50 91 -107 192 -125 225 -29 53 -69 123 -140 250 -13 22 -55 99
-95 170 -40 72 -85 153 -101 180 -15 28 -67 120 -114 205 -122 218 -140 251
-160 285 -10 17 -29 50 -42 75 -50 91 -93 169 -206 370 -63 113 -179 320 -257
460 -78 140 -151 271 -162 290 -11 19 -89 159 -173 310 -146 262 -165 296
-208 373 -10 17 -34 59 -52 92 -69 124 -85 154 -170 305 -48 85 -99 176 -113
202 l-26 47 72 121 c40 66 77 129 82 138 6 10 33 55 61 102 65 109 756 1265
780 1307 11 17 54 91 98 165 43 73 88 149 101 168 54 83 455 763 455 771 0 5
5 9 10 9 6 0 10 5 10 10 0 6 8 23 19 38 17 25 309 514 321 537 3 5 140 235
304 510 164 275 342 572 394 660 52 88 105 176 117 195 13 19 102 170 200 335
97 165 185 311 194 325 10 14 23 35 30 48 l12 22 -539 0 c-420 0 -542 -3 -550
-12z"/>
<path d="M1202 11350 l-443 -5 39 -65 c47 -79 458 -777 502 -855 10 -16 91
-154 180 -305 89 -151 172 -291 183 -310 10 -19 45 -78 77 -130 31 -52 68
-115 82 -140 14 -25 72 -124 129 -220 56 -96 109 -186 116 -200 8 -14 22 -37
31 -52 14 -22 148 -250 332 -564 67 -114 487 -828 501 -852 9 -15 40 -67 69
-117 29 -49 61 -103 71 -120 10 -16 24 -41 32 -55 20 -36 306 -522 393 -668
41 -68 74 -126 74 -129 0 -2 8 -17 19 -31 10 -15 29 -45 41 -67 36 -65 458
-784 505 -860 24 -38 53 -88 65 -110 52 -94 144 -245 149 -245 3 0 48 69 99
153 52 83 129 208 173 277 43 69 88 141 99 160 11 19 53 87 94 152 l74 116
-78 130 c-42 72 -80 136 -84 144 -3 7 -14 27 -25 43 -60 99 -851 1439 -894
1515 -10 19 -28 47 -38 62 -11 14 -19 28 -19 31 0 2 -79 139 -176 303 -97 164
-190 324 -207 354 -16 30 -36 62 -43 71 -8 8 -14 18 -14 21 0 3 -37 68 -82
144 -124 211 -206 353 -240 414 -17 30 -42 73 -56 95 -14 22 -39 65 -55 95
-16 30 -36 62 -43 71 -8 8 -14 18 -14 21 0 4 -44 82 -98 175 -55 92 -220 380
-369 638 -249 434 -297 518 -351 615 -10 19 -48 87 -84 150 -36 63 -68 123
-71 133 -5 13 -18 17 -59 18 -29 0 -73 1 -98 2 -25 1 -244 0 -488 -3z"/>
<path d="M4279 9240 l-75 -5 253 -435 c140 -239 258 -444 263 -455 6 -11 14
-27 20 -35 9 -13 63 -106 120 -205 28 -49 220 -379 230 -395 22 -36 180 -308
197 -340 82 -146 258 -447 268 -458 9 -10 41 40 147 225 75 131 193 336 262
456 69 120 126 221 126 223 0 2 15 27 33 56 19 29 37 60 40 68 4 8 17 31 28
50 21 35 240 415 278 482 11 20 31 55 45 77 15 22 26 42 26 44 0 2 57 103 126
223 70 120 135 235 146 254 11 19 38 65 59 102 22 36 39 68 39 70 0 6 -2541 4
-2631 -2z"/>
<path d="M5519 4828 c-23 -40 -70 -120 -104 -178 -34 -58 -73 -125 -87 -150
-24 -42 -546 -944 -592 -1021 -11 -20 -67 -117 -124 -215 -57 -98 -107 -186
-112 -194 -28 -45 -127 -217 -133 -230 -4 -8 -15 -28 -26 -45 -10 -16 -27 -46
-38 -65 -11 -19 -134 -231 -273 -470 -139 -239 -262 -451 -273 -470 -10 -19
-40 -71 -66 -115 -25 -44 -50 -88 -56 -97 -17 -29 -152 -263 -260 -448 -56
-96 -168 -290 -249 -430 -82 -140 -199 -343 -262 -450 -62 -107 -115 -202
-119 -210 -5 -13 160 -15 1437 -17 794 -1 2055 -2 2803 -3 748 -1 1368 -2
1379 -1 13 1 16 4 9 14 -9 10 -93 154 -183 312 -25 44 -189 329 -380 660 -92
160 -177 306 -187 325 -11 19 -46 80 -78 135 -32 55 -66 114 -75 130 -9 17
-59 102 -110 190 -51 88 -104 179 -117 203 -13 23 -53 93 -89 154 -35 61 -64
112 -64 114 0 2 -25 44 -55 95 -30 50 -55 93 -55 94 0 2 -21 40 -195 340 -114
197 -131 228 -157 275 -11 19 -27 49 -37 65 -10 17 -29 50 -43 75 -14 25 -75
131 -135 235 -60 105 -123 213 -139 242 -243 430 -701 1222 -706 1223 -4 0
-26 -33 -49 -72z"/>
</g>
</svg>
